<?xml version="1.0" encoding="utf-8"?>
<!-- Generator: Adobe Illustrator 28.3.0, SVG Export Plug-In . SVG Version: 6.00 Build 0)  -->
<svg version="1.1" id="Layer_1" xmlns="http://www.w3.org/2000/svg" xmlns:xlink="http://www.w3.org/1999/xlink" x="0px" y="0px"
	 viewBox="0 0 738 264" style="enable-background:new 0 0 738 264;" xml:space="preserve">
<style type="text/css">
	.st0{opacity:0.3;fill:none;stroke:#E9C21E;stroke-width:4;stroke-linecap:round;stroke-linejoin:round;enable-background:new    ;}
	.st1{fill:#666666;}
</style>
<path class="st0" d="M0,207.4l8.3,8.2l3.1,9.6l5.8-8.9l4-8.9h7.5v-4.9c0,0,4.5,1.9,5.5,0l1-1.9l6.8,8.6l6.8,8.6l3.9-10.3l3.4-6.9
	l11.2,8.6l5.7-8.6v-4.2h7l7.8-9.5c0,0,1.4,1.7,3.6,0s5.1-5.1,5.1-5.1h3.8l4-3.4l2.9-6.9l5.8,6.9l2.2-6.9h2.5l2.1,15.4l3.9,22.3
	l3.9-5.1l5.8,60v-19.5l1.9,4l4.6-30.9h8.4l2.5-10.3c0,0,1.9,10.3,2.9,6.9s6.8-25.7,6.8-25.7l4.9,5.1l7.8,6.9l3.9-13.7l5.8-3.4
	l4.2-12h5.5l5-17.1l3.9,18.9l6.8,1.7l5.8-15.4h4.9l3.9,22.3l2-27.4h7.9l3.6-8.6h5.8v-7.1l5.9,0.2l5.8-6.9l3.9,5.1v-9.9l4.9,18.5
	l2.9-24v-5h4.4l5.3,15.3l4.9-12l3.9,3.4l3.9-10.3l4.9-17.1h5l2.8-5.1l6.2,10.3l3-10.3h6.5l4.3,10.3l2.4-15.4l2-3.4h4.2l2.6-5.1h4.4
	l5.4-6.9l2.9,5.1l5.8-10.3l2.9,8.6h3.9l2,10.3l14.6-30.9h5.2L389.4,72V44.1l3.9,15.9l5.7-15.9l2.1,10.8l2.9,1.7l2.9,22.3l4.9-10.3
	l4.9,15.4l2-5.1l4.9,10.3l2,8.6V78.2l3.9-13.1h6.8l9.6,36l3.1,3.4l4.9,24v-32l7.5,4.5l3.3,37.7l3.9-17.1l3.9,8.6l2.9-10.3l3.9,6.9
	l3-25.7l5.8-5.1V80.8l5.8,4.9l5.8,37.7l3.9-25.7l7,56.3v-19.8l5.6,14.9l3.9-34.3l2.9,25.7V115l5.8,6.7l6.8-15.4l2.9,18.9l6.8,3.4
	l4.9-17.1l2.9,5.1l9.6-15.4l4.1,5.1l2,6.9l5.8-15.4v26.9l8.5-23.5h16.4l2.3-8.6l3.9,1.7l2-5.1l2.9-5.1l2-8.6c0,0,2.9,5.1,3.9,5.1
	s4.9-8.6,4.9-8.6l4.9,5.1v-7.7l4.9-9.5v8.6l5.7,5.2l2.1,8.4l5.8-17.1l3.9,8.6l3.9,1.7l2.9,12l8.1-2.2l7,23.6V81.7l5.3-6.3v-8.6
	l6.8-6.8l3.9-15.9h5.5l5.3,9.1l12.7-30.9h3.5l4.3-8.6h5.6l2.2-8.6l3-5.1l9.7,18.9"/>
<g>
	<path class="st1" d="M52.2,163l65-140h4l65,140h-4.6L118.2,26.2h2L56.8,163L52.2,163L52.2,163z M73.6,120.8l2-3.8h87l2,3.8H73.6z"
		/>
	<path class="st1" d="M214.6,163V23h4v136.2H302v3.8H214.6z"/>
	<path class="st1" d="M362.8,163.6c-10.1,0-19.7-1.9-28.7-5.6c-9-3.7-15.8-8.5-20.5-14.2l2.8-2.6c4.4,5.2,10.8,9.6,19.1,13.2
		c8.3,3.6,17.4,5.4,27.1,5.4s18.4-1.4,24.9-4.2s11.3-6.6,14.4-11.3s4.7-10,4.7-15.7c0-6.7-1.6-12-4.8-16.1
		c-3.2-4.1-7.5-7.3-12.8-9.6s-11.1-4.3-17.4-5.8c-6.3-1.5-12.6-3.1-18.9-4.7s-12.2-3.7-17.5-6.3c-5.3-2.6-9.6-6.2-12.8-10.7
		c-3.2-4.5-4.8-10.5-4.8-17.8c0-6.1,1.6-11.9,4.9-17.2s8.3-9.7,15.2-13c6.9-3.3,15.8-5,26.7-5c7.5,0,14.8,1.2,22.1,3.5
		c7.3,2.3,13.4,5.4,18.5,9.3l-2.2,3.2c-5.6-4.1-11.8-7.2-18.6-9.2s-13.3-3-19.6-3c-9.7,0-17.8,1.4-24.2,4.3
		c-6.4,2.9-11.1,6.7-14.2,11.4s-4.6,10-4.6,15.9c0,6.8,1.6,12.2,4.8,16.3c3.2,4.1,7.5,7.3,12.8,9.6c5.3,2.3,11.2,4.3,17.5,5.8
		c6.3,1.5,12.6,3.1,18.9,4.8c6.3,1.7,12.1,3.8,17.4,6.4s9.6,6.1,12.8,10.5c3.2,4.4,4.8,10.2,4.8,17.4c0,6.1-1.7,11.9-5,17.2
		s-8.5,9.6-15.6,12.9C382.9,161.9,373.8,163.6,362.8,163.6L362.8,163.6z"/>
	<path class="st1" d="M473,163V26.8h-52V23h108v3.8h-52V163H473L473,163z"/>
	<path class="st1" d="M556.4,163V23h3.4l66.6,116.4h-1.8L691,23h3.4v140h-4V28.8h1.6l-65.4,114.4h-2.4L558.6,28.8h1.8V163L556.4,163
		L556.4,163z"/>
</g>
<g>
	<path class="st1" d="M52.9,212.8H41.2l-2.2,5.4h-6L44.2,193H50l11.3,25.2h-6.1C55.2,218.2,52.9,212.8,52.9,212.8z M51.1,208.4
		l-4-9.6l-4,9.6H51.1L51.1,208.4z"/>
	<path class="st1" d="M75.8,217.2c-0.6,0.4-1.2,0.7-2,0.9c-0.8,0.2-1.7,0.3-2.5,0.3c-2.3,0-4.1-0.6-5.3-1.8
		c-1.3-1.2-1.9-2.9-1.9-5.2v-8h-3v-4.3h3v-4.7h5.6v4.7h4.8v4.3h-4.8v7.9c0,0.8,0.2,1.4,0.6,1.9s1,0.7,1.8,0.7c0.9,0,1.6-0.2,2.3-0.7
		L75.8,217.2L75.8,217.2z"/>
	<path class="st1" d="M91.1,217.2c-0.6,0.4-1.2,0.7-2,0.9c-0.8,0.2-1.7,0.3-2.5,0.3c-2.3,0-4.1-0.6-5.3-1.8
		c-1.3-1.2-1.9-2.9-1.9-5.2v-8h-3v-4.3h3v-4.7h5.6v4.7h4.8v4.3h-4.8v7.9c0,0.8,0.2,1.4,0.6,1.9s1,0.7,1.8,0.7c0.9,0,1.6-0.2,2.3-0.7
		L91.1,217.2L91.1,217.2z"/>
	<path class="st1" d="M112.5,210.1H97.8c0.3,1.2,0.9,2.1,1.9,2.8c1,0.7,2.2,1,3.7,1c1,0,1.9-0.1,2.7-0.4s1.5-0.8,2.2-1.4l3,3.2
		c-1.8,2.1-4.5,3.1-8,3.1c-2.2,0-4.1-0.4-5.8-1.3s-3-2-3.9-3.6c-0.9-1.5-1.4-3.2-1.4-5.1s0.4-3.6,1.3-5.1s2.1-2.7,3.7-3.6
		c1.6-0.9,3.3-1.3,5.3-1.3s3.6,0.4,5.2,1.2c1.5,0.8,2.7,2,3.6,3.5c0.9,1.5,1.3,3.3,1.3,5.3C112.6,208.6,112.5,209.1,112.5,210.1
		L112.5,210.1z M99.3,203.9c-0.9,0.7-1.4,1.7-1.6,2.9h9.5c-0.2-1.2-0.7-2.2-1.6-2.9s-1.9-1.1-3.2-1.1S100.2,203.1,99.3,203.9
		L99.3,203.9z"/>
	<path class="st1" d="M133.9,200.7c1.5,1.4,2.2,3.6,2.2,6.4v11.1h-5.6V208c0-1.5-0.3-2.7-1-3.4c-0.7-0.8-1.6-1.1-2.9-1.1
		c-1.4,0-2.5,0.4-3.4,1.3c-0.8,0.9-1.3,2.2-1.3,3.9v9.6h-5.6v-19.4h5.4v2.3c0.7-0.8,1.7-1.4,2.8-1.9s2.3-0.7,3.6-0.7
		C130.5,198.5,132.4,199.3,133.9,200.7L133.9,200.7z"/>
	<path class="st1" d="M153.7,217.2c-0.6,0.4-1.2,0.7-2,0.9c-0.8,0.2-1.6,0.3-2.5,0.3c-2.3,0-4.1-0.6-5.4-1.8
		c-1.3-1.2-1.9-2.9-1.9-5.2v-8h-3v-4.3h3v-4.7h5.6v4.7h4.8v4.3h-4.8v7.9c0,0.8,0.2,1.4,0.6,1.9s1,0.7,1.8,0.7c0.9,0,1.6-0.2,2.3-0.7
		L153.7,217.2L153.7,217.2z"/>
	<path class="st1" d="M157.1,195.2c-0.6-0.6-1-1.3-1-2.2s0.3-1.6,1-2.2c0.6-0.6,1.5-0.9,2.5-0.9s1.9,0.3,2.5,0.9
		c0.6,0.6,1,1.3,1,2.2c0,0.9-0.3,1.7-1,2.3s-1.5,0.9-2.5,0.9S157.8,195.8,157.1,195.2L157.1,195.2z M156.9,198.8h5.6v19.4h-5.6
		V198.8z"/>
	<path class="st1" d="M171.4,217.2c-1.6-0.9-2.9-2-3.8-3.6c-0.9-1.5-1.4-3.2-1.4-5.1s0.5-3.6,1.4-5.1c0.9-1.5,2.2-2.7,3.8-3.6
		c1.6-0.9,3.4-1.3,5.5-1.3s3.9,0.4,5.5,1.3s2.9,2,3.8,3.6c0.9,1.5,1.4,3.2,1.4,5.1s-0.5,3.6-1.4,5.1c-0.9,1.5-2.2,2.7-3.8,3.6
		c-1.6,0.9-3.4,1.3-5.5,1.3S173,218.1,171.4,217.2z M180.5,212.4c0.9-1,1.4-2.3,1.4-3.9s-0.5-2.9-1.4-3.9c-0.9-1-2.1-1.5-3.6-1.5
		s-2.6,0.5-3.6,1.5c-0.9,1-1.4,2.3-1.4,3.9s0.5,2.9,1.4,3.9s2.1,1.5,3.6,1.5S179.5,213.4,180.5,212.4z"/>
	<path class="st1" d="M208.9,200.7c1.5,1.4,2.2,3.6,2.2,6.4v11.1h-5.6V208c0-1.5-0.3-2.7-1-3.4c-0.7-0.8-1.6-1.1-2.9-1.1
		c-1.4,0-2.5,0.4-3.4,1.3c-0.8,0.9-1.3,2.2-1.3,3.9v9.6h-5.6v-19.4h5.4v2.3c0.7-0.8,1.7-1.4,2.8-1.9s2.3-0.7,3.6-0.7
		C205.4,198.5,207.4,199.3,208.9,200.7L208.9,200.7z"/>
	<path class="st1" d="M226.7,193h5.8v20.4h12.6v4.8h-18.5V193z"/>
	<path class="st1" d="M251.7,217.2c-1.6-0.9-2.9-2-3.8-3.6s-1.4-3.2-1.4-5.1s0.5-3.6,1.4-5.1c0.9-1.5,2.2-2.7,3.8-3.6
		s3.4-1.3,5.5-1.3c2,0,3.9,0.4,5.5,1.3c1.6,0.9,2.9,2,3.8,3.6c0.9,1.5,1.4,3.2,1.4,5.1s-0.5,3.6-1.4,5.1s-2.2,2.7-3.8,3.6
		c-1.6,0.9-3.4,1.3-5.5,1.3S253.3,218.1,251.7,217.2L251.7,217.2z M260.7,212.4c0.9-1,1.4-2.3,1.4-3.9s-0.5-2.9-1.4-3.9
		c-0.9-1-2.1-1.5-3.5-1.5s-2.6,0.5-3.6,1.5c-0.9,1-1.4,2.3-1.4,3.9s0.5,2.9,1.4,3.9c0.9,1,2.1,1.5,3.6,1.5S259.8,213.4,260.7,212.4z
		"/>
	<path class="st1" d="M289.1,200.7c1.5,1.4,2.2,3.6,2.2,6.4v11.1h-5.6V208c0-1.5-0.3-2.7-1-3.4s-1.6-1.1-2.9-1.1
		c-1.4,0-2.5,0.4-3.4,1.3c-0.8,0.9-1.3,2.2-1.3,3.9v9.6h-5.6v-19.4h5.4v2.3c0.7-0.8,1.7-1.4,2.8-1.9c1.1-0.4,2.3-0.7,3.6-0.7
		C285.7,198.5,287.6,199.3,289.1,200.7L289.1,200.7z"/>
	<path class="st1" d="M316.6,198.8V215c0,3.6-0.9,6.2-2.8,7.9c-1.9,1.7-4.5,2.6-8.1,2.6c-1.9,0-3.6-0.2-5.3-0.7
		c-1.7-0.5-3.1-1.1-4.2-2l2.2-4c0.8,0.7,1.9,1.2,3.1,1.6c1.2,0.4,2.5,0.6,3.7,0.6c1.9,0,3.4-0.4,4.3-1.3c0.9-0.9,1.4-2.2,1.4-4v-0.8
		c-1.5,1.6-3.5,2.4-6.1,2.4c-1.8,0-3.4-0.4-4.9-1.2s-2.6-1.9-3.5-3.3c-0.9-1.4-1.3-3.1-1.3-4.9s0.4-3.5,1.3-4.9
		c0.9-1.4,2-2.5,3.5-3.3s3.1-1.2,4.9-1.2c2.8,0,4.9,0.9,6.4,2.8v-2.5L316.6,198.8L316.6,198.8z M309.6,211.3c1-0.9,1.4-2,1.4-3.4
		s-0.5-2.6-1.4-3.4s-2.2-1.3-3.6-1.3s-2.7,0.4-3.7,1.3c-1,0.9-1.4,2-1.4,3.4s0.5,2.6,1.4,3.4s2.2,1.3,3.7,1.3
		S308.7,212.2,309.6,211.3z"/>
	<path class="st1" d="M334.9,217.8c-1.9-0.5-3.4-1.2-4.5-2.1l2-4.4c1.1,0.8,2.4,1.4,3.9,1.9c1.5,0.5,3,0.7,4.5,0.7
		c1.7,0,2.9-0.2,3.7-0.7s1.2-1.1,1.2-2c0-0.6-0.2-1.1-0.7-1.5c-0.5-0.4-1.1-0.7-1.8-0.9c-0.7-0.2-1.7-0.5-3-0.8
		c-1.9-0.5-3.5-0.9-4.7-1.4c-1.2-0.5-2.3-1.2-3.1-2.2s-1.3-2.4-1.3-4c0-1.5,0.4-2.8,1.2-4s2-2.1,3.6-2.8c1.6-0.7,3.5-1,5.9-1
		c1.6,0,3.2,0.2,4.7,0.6c1.5,0.4,2.9,0.9,4,1.7l-1.8,4.4c-2.3-1.3-4.7-2-7-2c-1.6,0-2.8,0.3-3.6,0.8s-1.2,1.2-1.2,2.1
		s0.5,1.5,1.4,1.9s2.3,0.8,4.1,1.2c1.9,0.5,3.5,0.9,4.7,1.4s2.3,1.2,3.1,2.2c0.9,1,1.3,2.3,1.3,4c0,1.4-0.4,2.8-1.2,3.9
		c-0.8,1.2-2,2.1-3.6,2.8s-3.6,1-5.9,1C338.7,218.6,336.7,218.4,334.9,217.8L334.9,217.8z"/>
	<path class="st1" d="M372.5,200.7c1.5,1.4,2.2,3.6,2.2,6.4v11.1h-5.6V208c0-1.5-0.3-2.7-1-3.4s-1.6-1.1-2.9-1.1
		c-1.4,0-2.5,0.4-3.4,1.3c-0.8,0.9-1.3,2.2-1.3,3.9v9.6H355v-26.7h5.6v9.4c0.7-0.7,1.6-1.3,2.7-1.7c1.1-0.4,2.2-0.6,3.5-0.6
		C369.1,198.5,371.1,199.3,372.5,200.7L372.5,200.7z"/>
	<path class="st1" d="M383.8,217.2c-1.6-0.9-2.9-2-3.8-3.6s-1.4-3.2-1.4-5.1s0.5-3.6,1.4-5.1s2.2-2.7,3.8-3.6s3.5-1.3,5.5-1.3
		s3.9,0.4,5.5,1.3c1.6,0.9,2.9,2,3.8,3.6c0.9,1.5,1.4,3.2,1.4,5.1s-0.5,3.6-1.4,5.1s-2.2,2.7-3.8,3.6c-1.6,0.9-3.4,1.3-5.5,1.3
		S385.4,218.1,383.8,217.2z M392.8,212.4c0.9-1,1.4-2.3,1.4-3.9s-0.5-2.9-1.4-3.9c-0.9-1-2.1-1.5-3.5-1.5s-2.6,0.5-3.6,1.5
		c-0.9,1-1.4,2.3-1.4,3.9s0.5,2.9,1.4,3.9c0.9,1,2.1,1.5,3.6,1.5S391.9,213.4,392.8,212.4z"/>
	<path class="st1" d="M411.7,199.2c1.1-0.5,2.5-0.7,3.9-0.7v5.2c-0.6-0.1-1-0.1-1.3-0.1c-1.6,0-2.9,0.4-3.8,1.4s-1.4,2.2-1.4,4.1
		v9.1h-5.6v-19.4h5.4v2.6C409.7,200.4,410.6,199.7,411.7,199.2L411.7,199.2z"/>
	<path class="st1" d="M432.2,217.2c-0.5,0.4-1.2,0.7-2,0.9c-0.8,0.2-1.6,0.3-2.5,0.3c-2.3,0-4.1-0.6-5.4-1.8
		c-1.3-1.2-1.9-2.9-1.9-5.2v-8h-3v-4.3h3v-4.7h5.6v4.7h4.8v4.3H426v7.9c0,0.8,0.2,1.4,0.6,1.9s1,0.7,1.8,0.7c0.9,0,1.6-0.2,2.3-0.7
		L432.2,217.2L432.2,217.2z"/>
	<path class="st1" d="M434.3,205.8h10.2v4.5h-10.2V205.8z"/>
	<path class="st1" d="M453.2,197.7h-8.1V193h22v4.8H459v20.4h-5.8L453.2,197.7L453.2,197.7z"/>
	<path class="st1" d="M486.7,210.1h-14.6c0.3,1.2,0.9,2.1,1.9,2.8s2.2,1,3.7,1c1,0,1.9-0.1,2.7-0.4s1.5-0.8,2.2-1.4l3,3.2
		c-1.8,2.1-4.5,3.1-8,3.1c-2.2,0-4.1-0.4-5.8-1.3s-3-2-3.9-3.6s-1.4-3.2-1.4-5.1s0.5-3.6,1.4-5.1s2.1-2.7,3.7-3.6
		c1.6-0.9,3.3-1.3,5.3-1.3s3.6,0.4,5.1,1.2c1.5,0.8,2.7,2,3.6,3.5s1.3,3.3,1.3,5.3C486.8,208.6,486.8,209.1,486.7,210.1L486.7,210.1
		z M473.6,203.9c-0.9,0.7-1.4,1.7-1.6,2.9h9.5c-0.2-1.2-0.7-2.2-1.6-2.9s-1.9-1.1-3.2-1.1S474.5,203.1,473.6,203.9L473.6,203.9z"/>
	<path class="st1" d="M498.7,199.2c1.1-0.5,2.5-0.7,3.9-0.7v5.2c-0.6-0.1-1-0.1-1.3-0.1c-1.6,0-2.9,0.4-3.8,1.4s-1.4,2.2-1.4,4.1
		v9.1h-5.6v-19.4h5.4v2.6C496.6,200.4,497.5,199.7,498.7,199.2L498.7,199.2z"/>
	<path class="st1" d="M536.5,200.7c1.4,1.4,2.1,3.6,2.1,6.4v11.1h-5.6V208c0-1.5-0.3-2.7-1-3.4c-0.6-0.8-1.5-1.1-2.7-1.1
		c-1.3,0-2.4,0.4-3.1,1.3s-1.2,2.1-1.2,3.8v9.7h-5.6V208c0-3.1-1.2-4.6-3.7-4.6c-1.3,0-2.3,0.4-3.1,1.3c-0.8,0.9-1.1,2.1-1.1,3.8
		v9.7h-5.6v-19.4h5.4v2.2c0.7-0.8,1.6-1.4,2.6-1.9c1-0.4,2.2-0.6,3.4-0.6c1.4,0,2.6,0.3,3.7,0.8c1.1,0.5,2,1.3,2.7,2.4
		c0.8-1,1.8-1.8,3-2.3c1.2-0.6,2.5-0.8,4-0.8C533.2,198.5,535.1,199.3,536.5,200.7L536.5,200.7z"/>
	<path class="st1" d="M577.2,218.2l0-15.1l-7.4,12.5h-2.6l-7.4-12.1v14.8h-5.5V193h4.8l9.4,15.7l9.3-15.7h4.8l0.1,25.2L577.2,218.2
		L577.2,218.2z"/>
	<path class="st1" d="M607.1,210.1h-14.7c0.3,1.2,0.9,2.1,1.9,2.8s2.2,1,3.7,1c1,0,1.9-0.1,2.7-0.4c0.8-0.3,1.5-0.8,2.2-1.4l3,3.2
		c-1.8,2.1-4.5,3.1-8,3.1c-2.2,0-4.1-0.4-5.8-1.3s-3-2-3.9-3.6s-1.4-3.2-1.4-5.1s0.5-3.6,1.3-5.1c0.9-1.5,2.1-2.7,3.7-3.6
		c1.6-0.9,3.3-1.3,5.3-1.3s3.6,0.4,5.2,1.2c1.5,0.8,2.7,2,3.6,3.5s1.3,3.3,1.3,5.3C607.2,208.6,607.2,209.1,607.1,210.1L607.1,210.1
		z M594,203.9c-0.9,0.7-1.4,1.7-1.6,2.9h9.5c-0.2-1.2-0.7-2.2-1.6-2.9c-0.9-0.7-1.9-1.1-3.2-1.1S594.9,203.1,594,203.9L594,203.9z"
		/>
	<path class="st1" d="M641.6,200.7c1.4,1.4,2.1,3.6,2.1,6.4v11.1h-5.6V208c0-1.5-0.3-2.7-1-3.4c-0.6-0.8-1.5-1.1-2.7-1.1
		c-1.3,0-2.4,0.4-3.1,1.3s-1.2,2.1-1.2,3.8v9.7h-5.6V208c0-3.1-1.2-4.6-3.7-4.6c-1.3,0-2.3,0.4-3.1,1.3c-0.8,0.9-1.2,2.1-1.2,3.8
		v9.7H611v-19.4h5.4v2.2c0.7-0.8,1.6-1.4,2.7-1.9c1-0.4,2.2-0.6,3.4-0.6c1.4,0,2.6,0.3,3.7,0.8c1.1,0.5,2,1.3,2.7,2.4
		c0.8-1,1.8-1.8,3-2.3c1.2-0.6,2.5-0.8,4-0.8C638.2,198.5,640.2,199.3,641.6,200.7L641.6,200.7z"/>
	<path class="st1" d="M652.7,217.2c-1.6-0.9-2.9-2-3.8-3.6s-1.4-3.2-1.4-5.1s0.5-3.6,1.4-5.1s2.2-2.7,3.8-3.6s3.5-1.3,5.5-1.3
		s3.9,0.4,5.5,1.3s2.9,2,3.8,3.6c0.9,1.5,1.4,3.2,1.4,5.1s-0.5,3.6-1.4,5.1s-2.2,2.7-3.8,3.6c-1.6,0.9-3.4,1.3-5.5,1.3
		S654.3,218.1,652.7,217.2z M661.7,212.4c0.9-1,1.4-2.3,1.4-3.9s-0.5-2.9-1.4-3.9c-0.9-1-2.1-1.5-3.5-1.5s-2.6,0.5-3.6,1.5
		c-0.9,1-1.4,2.3-1.4,3.9s0.5,2.9,1.4,3.9c0.9,1,2.1,1.5,3.6,1.5S660.8,213.4,661.7,212.4z"/>
	<path class="st1" d="M680.6,199.2c1.1-0.5,2.5-0.7,3.9-0.7v5.2c-0.6-0.1-1-0.1-1.3-0.1c-1.6,0-2.9,0.4-3.8,1.4s-1.4,2.2-1.4,4.1
		v9.1h-5.6v-19.4h5.4v2.6C678.6,200.4,679.5,199.7,680.6,199.2L680.6,199.2z"/>
	<path class="st1" d="M707.8,198.8l-8.8,20.6c-0.9,2.2-2,3.8-3.3,4.7c-1.3,0.9-2.9,1.4-4.7,1.4c-1,0-2-0.2-3-0.5
		c-1-0.3-1.8-0.7-2.4-1.3l2-4c0.4,0.4,0.9,0.7,1.5,0.9s1.1,0.3,1.7,0.3c0.8,0,1.4-0.2,1.9-0.6s0.9-1,1.3-1.9l0.1-0.2l-8.4-19.5h5.8
		L697,212l5.5-13.1H707.8z"/>
</g>
</svg>
